<svg width="716" height="754" viewBox="0 0 716 754" fill="none" xmlns="http://www.w3.org/2000/svg">
<g clip-path="url(#clip0_1167_1453)">
<circle cx="241" cy="374" r="202" fill="#8F1F57"/>
<path d="M677.351 240.008C692.497 255.154 706.381 269.945 719.003 284.381C719.003 288.404 713.954 293.295 703.857 299.054C701.017 301.184 692.182 305.68 677.351 312.543C676.247 313.806 671.592 315.778 663.388 318.46C663.388 319.959 650.372 324.297 624.34 331.476C602.883 336.525 584.345 339.049 568.726 339.049C566.912 339.049 563.48 339.404 558.431 340.114L556.183 339.64C552.554 339.956 549.675 340.114 547.545 340.114L544.35 339.64L542.221 340.114C526.68 340.114 502.66 336.682 470.159 329.819C460.14 326.585 450.792 324.258 442.115 322.838C375.378 300.119 328.126 288.759 300.358 288.759L299.293 289.233C296.769 288.917 295.507 288.562 295.507 288.168L292.193 288.759C278.625 288.759 269.08 289.312 263.558 290.416V291.481C267.66 296.845 271.999 305.483 276.574 317.395C281.938 333.882 284.62 347.963 284.62 359.638L284.147 360.703C284.147 361.018 284.305 361.176 284.62 361.176L284.147 363.898V364.963C284.147 372.22 282.885 381.607 280.361 393.125C276.732 409.691 272.235 422.155 266.871 430.516C266.871 432.173 263.085 439.194 255.512 451.579C252.435 457.18 247.544 463.688 240.839 471.103C228.06 484.513 217.055 493.349 207.826 497.608C195.677 506.601 182.148 511.098 167.239 511.098V511.571L164.518 511.098H159.666C142.311 511.098 126.653 503.328 112.69 487.787C102.593 471.695 97.5439 457.653 97.5439 445.662L96.9523 438.089C98.0567 424.994 100.029 413.28 102.869 402.946C103.5 402.473 106.774 394.86 112.69 380.109C120.263 368.197 124.049 362.083 124.049 361.768C121.841 352.775 120.736 344.847 120.736 337.984C120.736 328.439 122.551 319.761 126.179 311.952C126.337 306.745 133.555 296.135 147.833 280.122C161.638 270.261 172.998 264.463 181.912 262.727C181.912 261.702 187.118 260.992 197.531 260.597C206.761 261.307 212.164 261.86 213.742 262.254C214.136 262.254 214.334 262.057 214.334 261.662C220.408 261.662 231.057 265.804 246.282 274.087C251.173 278.741 253.855 281.108 254.329 281.186C258.431 280.476 261.704 280.122 264.15 280.122V280.595C278.27 277.755 292.509 276.335 306.866 276.335C319.803 276.335 349.898 280.122 397.15 287.695C403.856 289.667 412.533 291.284 423.183 292.546C424.129 292.546 427.363 293.453 432.885 295.267C435.725 295.267 448.702 296.687 471.815 299.527C472.21 299.527 472.407 299.37 472.407 299.054C480.374 299.685 490.63 300.198 503.172 300.592C503.803 300.277 504.553 300.119 505.42 300.119C505.736 300.119 505.894 300.277 505.894 300.592C520.882 299.882 537.842 298.107 556.775 295.267C570.738 292.901 585.686 288.759 601.621 282.843C606.749 282.843 619.37 276.887 639.486 264.976C640.748 262.846 644.18 260.834 649.781 258.941L673.091 240.6C674.511 240.206 675.931 240.008 677.351 240.008ZM666.583 256.811H667.175C669.699 255.47 670.961 254.563 670.961 254.089V253.024L670.37 251.959C668.95 251.959 667.688 253.577 666.583 256.811ZM663.388 258.467H663.862C664.572 258.467 664.927 258.113 664.927 257.403H664.453C663.743 257.481 663.388 257.836 663.388 258.467ZM673.091 264.976L674.748 267.697C676.089 267.697 677.351 266.435 678.534 263.911C677.982 262.412 677.43 261.662 676.878 261.662H676.286C674.156 262.767 673.091 263.871 673.091 264.976ZM650.846 277.873H652.029C663.309 274.718 669.62 272.036 670.961 269.827C670.173 268.644 669.778 267.737 669.778 267.105H668.24C656.644 273.653 650.846 277.242 650.846 277.873ZM128.309 338.457C128.309 348.239 129.019 353.13 130.439 353.13H131.622C133.91 349.107 139.826 342.244 149.372 332.541C153.079 330.884 157.615 327.295 162.979 321.773C177.81 310.729 198.557 299.882 225.22 289.233C226.876 289.233 233.345 287.103 244.626 282.843V282.251C228.849 272.549 212.993 267.697 197.058 267.697C186.566 267.697 173.944 272.194 159.193 281.186C138.604 296.806 128.309 315.896 128.309 338.457ZM685.516 273.613V275.743H686.107C686.817 275.743 687.172 275.388 687.172 274.678C687.172 273.968 686.817 273.613 686.107 273.613H685.516ZM546.007 304.379C545.613 304.379 545.415 304.221 545.415 303.905C526.404 305.72 511.455 306.785 500.569 307.1C499.859 306.785 499.307 306.627 498.912 306.627L497.848 307.1L496.783 306.627L494.061 307.1C490.353 306.785 487.474 306.627 485.423 306.627C485.423 307.968 492.996 308.875 508.142 309.349C508.458 309.349 508.615 309.151 508.615 308.757L511.337 309.349C513.23 309.349 514.847 309.151 516.188 308.757C518.082 309.151 519.186 309.349 519.502 309.349C535.752 309.349 558.984 306.272 589.197 300.119C606.315 293.177 615.899 288.838 617.95 287.103C617.95 286.472 618.463 285.565 619.489 284.381L618.424 283.908C613.296 285.17 606.275 288.049 597.361 292.546C587.658 296.175 570.54 300.119 546.007 304.379ZM673.565 293.611V294.203H675.221C675.931 293.808 676.483 293.611 676.878 293.611C677.193 294.321 677.351 294.873 677.351 295.267C684.372 292.743 689.263 289.864 692.024 286.63V286.038C692.024 285.17 691.314 284.618 689.894 284.381L673.565 293.611ZM704.448 287.695L703.857 289.824H706.105V288.759C706.105 288.049 705.75 287.695 705.04 287.695H704.448ZM371.237 290.889V291.481C385.199 295.031 410.443 300.079 446.966 306.627C449.017 305.128 450.28 304.379 450.753 304.379V303.905C447.834 303.905 446.375 303.55 446.375 302.84C446.059 302.84 445.902 302.998 445.902 303.314C445.192 303.314 443.732 302.959 441.523 302.249L440.458 302.84C409.535 297.082 386.619 293.098 371.71 290.889H371.237ZM680.664 302.84H681.138C688.947 299.212 695.1 295.78 699.597 292.546V291.481C698.887 291.481 698.532 291.284 698.532 290.889C686.62 296.964 680.664 300.947 680.664 302.84ZM236.579 295.267L235.396 294.676L221.315 298.462C200.016 306.982 181.833 316.922 166.766 328.281L148.307 343.427C142.39 349.659 137.184 355.97 132.687 362.359C139.235 374.902 147.321 382.988 156.945 386.617L169.961 390.995C174.852 391.31 178.993 391.468 182.385 391.468H182.977C192.759 391.468 205.183 386.814 220.25 377.505C221.749 377.979 222.498 378.492 222.498 379.044V380.109C222.498 384.368 215.635 389.457 201.909 395.373C195.283 397.503 188.775 398.568 182.385 398.568H181.32C158.601 398.568 140.931 389.378 128.309 370.997H127.836C124.523 373.285 119.987 382.12 114.228 397.503C111.704 403.104 108.825 413.556 105.59 428.86C105.59 429.254 105.787 429.451 106.182 429.451C105.787 434.658 105.59 437.537 105.59 438.089C105.59 462.465 112.611 478.676 126.653 486.722C129.492 488.458 133.673 489.917 139.195 491.1L141.799 490.509L144.52 491.1C150.515 491.1 158.996 488.931 169.961 484.592C177.928 481.91 184.791 478.281 190.55 473.706C191.575 473.706 194.81 471.576 200.253 467.316C201.673 467.316 207.076 462.071 216.464 451.579C223.484 443.848 228.533 436.985 231.61 430.99C238.709 421.997 245.217 410.992 251.134 397.976C257.997 384.092 261.428 374.35 261.428 368.749L265.215 347.687V337.984C265.215 337.195 265.372 336.485 265.688 335.854C265.372 335.223 265.215 334.473 265.215 333.606C265.215 333.29 265.372 333.132 265.688 333.132L263.558 319.525C263.953 318.105 264.15 316.843 264.15 315.738C259.495 299.882 255.709 291.954 252.79 291.954C252.08 291.954 251.725 291.797 251.725 291.481C244.31 292.507 239.261 293.769 236.579 295.267ZM581.15 314.673V315.265C596.77 312.346 615.15 306.943 636.291 299.054C639.683 297.476 641.655 296.214 642.208 295.267C641.892 294.558 641.734 294.005 641.734 293.611H641.143C622.684 300.789 602.686 307.81 581.15 314.673ZM633.57 306.627H634.635L647.651 303.314V301.184H645.521C640.393 303.629 636.41 305.246 633.57 306.035V306.627ZM622.21 318.46C635.936 314.91 647.296 310.966 656.289 306.627L656.88 305.562H656.289L622.802 315.738L622.21 318.46ZM475.602 306.627V307.1C477.732 307.1 480.611 307.298 484.24 307.692H484.831V307.1L482.11 306.627H475.602ZM556.183 312.543H559.496C561.153 312.543 564.032 312.188 568.134 311.478V309.822H567.543C559.97 310.453 556.183 311.36 556.183 312.543ZM535.121 319.525V320.116C537.014 320.511 538.118 320.708 538.434 320.708C538.986 320.708 540.051 320.314 541.629 319.525L545.415 320.116C549.517 319.406 552.397 319.051 554.053 319.051H555.71V318.46C555.552 317.75 554.645 317.04 552.988 316.33C546.52 318.46 540.564 319.525 535.121 319.525ZM517.253 320.116V320.708C520.172 320.708 521.631 321.221 521.631 322.246V322.838C521.631 323.548 520.172 323.903 517.253 323.903V324.495C518.121 324.495 518.87 324.652 519.502 324.968C519.817 324.968 519.975 324.81 519.975 324.495L522.696 324.968H528.139C528.139 322.996 528.849 321.379 530.269 320.116L524.826 319.525H523.761L517.253 320.116ZM531.926 320.116V320.708H534.056V320.116H531.926ZM468.62 320.708C468.62 321.497 469.528 322.01 471.342 322.246L474.537 321.773V321.181C473.748 321.181 471.776 321.024 468.62 320.708ZM539.972 332.067V331.476C539.341 331.87 538.631 332.067 537.842 332.067V332.541C542.023 332.541 544.903 332.738 546.48 333.132C565.965 331.634 582.57 328.912 596.296 324.968L612.981 321.181V320.708H611.442C589.197 324.652 565.926 328.242 541.629 331.476C541.629 331.87 541.077 332.067 539.972 332.067ZM476.193 321.181L475.602 322.246C482.228 323.351 488.894 324.1 495.599 324.495C495.994 324.495 496.191 324.297 496.191 323.903L498.912 324.495H503.172V323.903C498.124 323.193 489.131 322.286 476.193 321.181ZM504.829 323.903V324.495L511.337 324.968L511.929 323.903C510.035 323.508 508.931 323.311 508.615 323.311L504.829 323.903ZM275.983 351.473V353.13H277.047V352.538C277.047 351.828 276.692 351.473 275.983 351.473ZM268.41 404.484C264.071 413.24 261.901 418.289 261.901 419.63C255.906 430.753 251.607 437.419 249.004 439.628C248.373 440.022 247.623 440.219 246.756 440.219L245.691 438.563L251.134 428.268C250.029 426.612 249.477 425.547 249.477 425.073H247.939C245.572 429.885 241.234 437.458 234.923 447.792C234.528 448.423 234.331 449.133 234.331 449.922L237.053 449.449C237.763 451.263 238.118 452.525 238.118 453.235C237.802 453.235 237.644 453.393 237.644 453.709H238.118L250.069 440.811H250.542L253.264 441.284C256.498 435.131 260.127 427.203 264.15 417.5C266.832 412.531 268.607 408.389 269.474 405.076L268.41 404.484ZM151.028 498.673H146.177C146.177 499.699 148.898 500.409 154.341 500.803C160.258 500.803 168.343 499.344 178.599 496.425V494.295H177.06C169.014 497.214 160.337 498.673 151.028 498.673Z" fill="white"/>
</g>
<defs>
<clipPath id="clip0_1167_1453">
<rect width="716" height="754" fill="white"/>
</clipPath>
</defs>
</svg>
